<svg id="Layer_1" data-name="Layer 1" xmlns="http://www.w3.org/2000/svg" viewBox="0 0 309.09 505.65">
  <defs>
    <style>
      .cls-1 {
        fill: #dbdbdb;
      }

      .cls-2 {
        fill: #f7b239;
      }

      .cls-3 {
        fill: #fff;
      }

      .cls-4 {
        fill: #f2c146;
      }

      .cls-5 {
        fill: #0055a4;
      }

      .cls-6 {
        fill: #ef4135;
      }
    </style>
  </defs>
  <title>royalcrown-logo-slim</title>
  <g>
    <path class="cls-1" d="M253.87,459.81,217.52,112.39l10.55-2,36.35,347.43c0,.29,0,.58.05.87l-5.36.15Z" transform="translate(-98.62 -2.82)"/>
    <path class="cls-1" d="M279.22,409.84l-32.28-286,10.28-2.16,32.28,286c0,.3.05.59.06.89l-5.26.21Z" transform="translate(-98.62 -2.82)"/>
    <path class="cls-1" d="M301.25,369.06,279.19,167.45l9-2.43,22.07,201.61c0,.33.06.66.08,1l-4.63.23Z" transform="translate(-98.62 -2.82)"/>
    <polygon class="cls-1" points="223.83 324.7 211.95 206.01 219.41 203.5 231.29 322.19 223.83 324.7"/>
    <path class="cls-1" d="M341.93,285l-6.8-75.59,7-2.89,6.79,75.59c0,.41.07.83.09,1.25l-3.59.2Z" transform="translate(-98.62 -2.82)"/>
  </g>
  <path class="cls-2" d="M405.74,180.5a27.4,27.4,0,0,0-47.5-26.42l-18,24.43a14.28,14.28,0,0,1-23.61-.88l-42.8-68.36A85.19,85.19,0,0,0,205.4,69.38a7.86,7.86,0,0,1-1.41.13,7.13,7.13,0,0,1-1.57-.17,5.93,5.93,0,0,1-5.12,2.57,6.51,6.51,0,0,1-2.82-.59,5.88,5.88,0,0,1-5.14,2.61,6.63,6.63,0,0,1-2.7-.53,5.91,5.91,0,0,1-5.26,2.81,6.4,6.4,0,0,1-3.36-.88,6,6,0,0,1-6.12,4.92,6.09,6.09,0,0,1-4.19-1.5c-.1,3.19-2.19,6.3-6.3,6.3-.24,0-.47,0-.7,0l40.5,398.49,2.54,24.95H336.23L311.4,483.51H284.7v-.93ZM275.4,395.22,252.62,439l-22.16,42.62L193.13,147V146a27.54,27.54,0,0,1,23.3-27.25c.44-.07.88-.13,1.32-.17a24.72,24.72,0,0,1,2.87-.16A27.55,27.55,0,0,1,243.79,131l2.12,3.28,33.61,52.15,8.55,13.27a40.31,40.31,0,0,0,22.61,17,41.26,41.26,0,0,0,27.56-1.48A40.23,40.23,0,0,0,357,199.19l16.74-26.86a7.75,7.75,0,0,1,5.8-3.62,7.62,7.62,0,0,1,3.86.57A7.8,7.8,0,0,1,387.27,180L343.73,263.8,321,307.61h0l-22.78,43.81Z" transform="translate(-98.62 -2.82)"/>
  <path class="cls-3" d="M205.84,110.07a7.18,7.18,0,0,1-7.11-6.32L196.85,88a7.17,7.17,0,0,1,14.23-1.69L213,102.06a7.17,7.17,0,0,1-6.27,8A8.08,8.08,0,0,1,205.84,110.07Z" transform="translate(-98.62 -2.82)"/>
  <g>
    <path class="cls-2" d="M140.09,64.13a1,1,0,1,1,1.82-.69,12.72,12.72,0,1,0,23.82-9,1,1,0,0,1,.57-1.26l-19-50.4c-3.08,8.21-2.76,21-2.76,21s-11.15-3.85-15.85,4.3c-3,5.13.86,9.66.86,9.66C131.64,33.67,143,26.92,149.76,31s8.39,20.08,1.28,22.53c-4.65,1.6-9.52-.63-13.08-3.1a5.31,5.31,0,0,1-2.17,1.62c1.45,4.18,1.62,9.18-4.85,10.7-11.72,2.75-13.07-8.94-16-12.28s-4.56,1.16-4.56,1.16c-8.84-8-11.77,3.34-11.77,3.34,10.75.65,21.46,14.7,28.52,26.3a12.7,12.7,0,0,0,13-17.15Z" transform="translate(-98.62 -2.82)"/>
    <path class="cls-2" d="M132.14,90.11c1.91,4,3,6.56,3,6.56L176.76,81l-2.54-6.74Z" transform="translate(-98.62 -2.82)"/>
    <path class="cls-2" d="M174.21,74.27,168.48,59a14.66,14.66,0,0,1-25.64,9.65,14.66,14.66,0,0,1-14.5,14.59c1.47,2.51,2.75,4.84,3.8,6.84l.11-.05,42-15.8Z" transform="translate(-98.62 -2.82)"/>
    <path class="cls-2" d="M138,50.45a5.32,5.32,0,1,0-2.29,1.67l.12,0" transform="translate(-98.62 -2.82)"/>
    <path class="cls-2" d="M135.79,52.07A5.4,5.4,0,0,0,138,50.46" transform="translate(-98.62 -2.82)"/>
    <path class="cls-4" d="M176.75,81l41.67-15.69s-1-2.93-2.35-7.68L173.93,73.52Z" transform="translate(-98.62 -2.82)"/>
    <path class="cls-4" d="M194.12,49.39A14.66,14.66,0,0,1,168.49,59l5.73,15.22,42-15.81.07,0c-.53-2.19-1.11-4.79-1.64-7.64a14.43,14.43,0,0,1-4.4,2.6A14.69,14.69,0,0,1,194.12,49.39Z" transform="translate(-98.62 -2.82)"/>
    <path class="cls-4" d="M218.33,9.92s-9.69-6.6-11.05,5.27c0,0-4.19-2.31-4.18,2.13s6.69,14.11-3.93,19.77c-5.86,3.12-9-.75-10.71-4.85a5.28,5.28,0,0,1-2.69.21c-1.05,4.21-3.24,9.1-7.8,11-7,2.85-16.32-10.22-13.89-17.78s15.38-9.95,19.64-8.22c0,0-.11-5.92-5.72-7.83-8.91-3-14.76,7.21-14.76,7.21s-8.19-9.83-15.92-14l19,50.4a1,1,0,0,1,1.26.57,12.73,12.73,0,0,0,23.83-9,1,1,0,0,1,1.82-.68,12.71,12.71,0,0,0,21.05,4.36C211.89,35.13,210.67,17.5,218.33,9.92Z" transform="translate(-98.62 -2.82)"/>
    <path class="cls-4" d="M188.46,32.25l.13,0a5.33,5.33,0,1,0-2.82.25" transform="translate(-98.62 -2.82)"/>
    <path class="cls-4" d="M185.77,32.45a5.18,5.18,0,0,0,2.69-.21" transform="translate(-98.62 -2.82)"/>
  </g>
  <polygon class="cls-5" points="55.16 79.63 51.38 84.31 45.43 83.38 43.26 77.77 47.04 73.08 52.99 74.01 55.16 79.63"/>
  <polygon class="cls-6" points="106.38 60.8 102.66 65.41 96.81 64.49 94.67 58.97 98.39 54.36 104.24 55.27 106.38 60.8"/>
  <polygon class="cls-3" points="80.59 69.66 76.81 74.34 70.86 73.41 68.69 67.8 72.47 63.11 78.42 64.04 80.59 69.66"/>
</svg>
