<?xml version="1.0" encoding="utf-8"?>
<!-- Generator: Adobe Illustrator 24.0.2, SVG Export Plug-In . SVG Version: 6.00 Build 0)  -->
<svg version="1.1" id="Layer_1" xmlns="http://www.w3.org/2000/svg" xmlns:xlink="http://www.w3.org/1999/xlink" x="0px" y="0px"
	 viewBox="0 0 519.6 516.5" enable-background="new 0 0 519.6 516.5" xml:space="preserve">
<title>royalcrown-logo-texto</title>
<g>
	<path fill="#DBDBDB" d="M257.6,350L229.8,83.9l8.1-1.6l27.8,266.1c0,0.2,0,0.4,0,0.7l-4.1,0.1L257.6,350z"/>
	<path fill="#DBDBDB" d="M277.1,311.7L252.4,92.7l7.9-1.7l24.7,219.1c0,0.2,0,0.5,0,0.7l-4,0.2L277.1,311.7z"/>
	<path fill="#DBDBDB" d="M293.9,280.5L277,126.1l6.9-1.9l16.9,154.4c0,0.3,0,0.5,0.1,0.8l-3.5,0.2L293.9,280.5z"/>
	<polygon fill="#DBDBDB" points="310.2,248.7 301.1,157.8 306.8,155.9 315.9,246.8 	"/>
	<path fill="#DBDBDB" d="M325.1,216.1l-5.2-57.8l5.3-2.2l5.2,57.9c0,0.3,0,0.6,0.1,1l-2.8,0.1L325.1,216.1z"/>
</g>
<path fill="#F7B239" d="M374,136.1c4.3-10.8-1-23-11.8-27.2c-8.8-3.5-18.9-0.6-24.6,7l-13.8,18.7c-3.6,4.9-10.4,5.9-15.3,2.3
	c-1.1-0.8-2.1-1.8-2.8-3L273,81.5c-11.4-18.2-31-29.6-52.4-30.6c-0.4,0.1-0.7,0.1-1.1,0.1c-0.4,0-0.8,0-1.2-0.1
	c-0.9,1.3-2.4,2.1-3.9,2c-0.7,0-1.5-0.1-2.2-0.5c-0.9,1.3-2.4,2.1-3.9,2c-0.7,0-1.4-0.1-2.1-0.4c-0.8,1.4-2.4,2.2-4,2.2
	c-0.9,0-1.8-0.2-2.6-0.7c-0.4,2.2-2.4,3.8-4.7,3.8c-1.2,0-2.3-0.4-3.2-1.1c0.1,2.6-2,4.7-4.6,4.8c-0.1,0-0.2,0-0.3,0h-0.5l31,305.1
	l1.9,19.1h101.5l-19-19.1h-20.5v-0.7L374,136.1z M274.1,300.5l-17.4,33.6l-17,32.6l-28.6-256.3v-0.8c0-10.4,7.6-19.3,17.8-20.9
	l1-0.1c0.7-0.1,1.5-0.1,2.2-0.1c7.2,0,13.9,3.7,17.8,9.7l1.6,2.5l25.8,40l6.5,10.2c4,6.3,10.2,10.9,17.3,13c7,2.1,14.4,1.7,21.1-1.1
	c6-2.5,11-6.8,14.4-12.3l12.8-20.6c1-1.6,2.6-2.6,4.5-2.8c1-0.1,2.1,0,3,0.4c3,1.3,4.4,4.9,3.1,7.9c0,0.1-0.1,0.2-0.2,0.3L326.5,200
	l-17.4,33.6l0,0L291.6,267L274.1,300.5z"/>
<path fill="#FFFFFF" d="M220.9,82.1c-2.8,0-5.1-2.1-5.4-4.8L214,65.2c-0.4-3,1.8-5.7,4.8-6.1s5.7,1.8,6.1,4.8l1.5,12.1
	c0.4,3-1.8,5.7-4.8,6.1C221.3,82.1,221.1,82.1,220.9,82.1z"/>
<g>
	<path fill="#F7B239" d="M170.5,47c-0.1-0.4,0.1-0.8,0.5-0.9c0.4-0.1,0.7,0.1,0.9,0.4c1.7,5.1,7.3,7.8,12.4,6.1
		c5.1-1.7,7.8-7.3,6.1-12.4c-0.1-0.2-0.1-0.4-0.2-0.6c-0.2-0.4,0-0.8,0.4-1c0,0,0,0,0,0L176.1,0c-2.4,6.3-2.1,16.1-2.1,16.1
		s-8.5-2.9-12.1,3.3c-1.3,2.4-1,5.3,0.7,7.4c1.6-3.1,10.3-8.3,15.5-5.2s6.4,15.4,1,17.2c-3.6,1.2-7.3-0.5-10-2.4
		c-0.4,0.6-1,1-1.7,1.2c1.1,3.2,1.2,7-3.7,8.2c-9,2.1-10-6.8-12.3-9.4c-2.3-2.5-3.5,0.9-3.5,0.9c-6.8-6.1-9,2.6-9,2.6
		c8.2,0.5,16.4,11.3,21.8,20.1c5.3,0.5,10.1-3.5,10.5-8.9C171.3,49.8,171.1,48.3,170.5,47L170.5,47z"/>
	<path fill="#F7B239" d="M164.4,66.8c1.5,3.1,2.3,5,2.3,5l31.9-12l-2-5.2L164.4,66.8z"/>
	<path fill="#F7B239" d="M196.6,54.7l-4.4-11.7c0,6.2-5.1,11.2-11.3,11.2c-3.2,0-6.2-1.4-8.3-3.8c0,4.6-2.9,8.8-7.3,10.5
		c-1.2,0.5-2.5,0.7-3.8,0.7c1.1,1.9,2.1,3.7,2.9,5.2h0.1L196.6,54.7L196.6,54.7z"/>
	<path fill="#F7B239" d="M164.8,32.9c1.2,1.3,2.6,2.5,4.1,3.5c1.4-1.8,1.1-4.3-0.7-5.7c-1.8-1.4-4.3-1.1-5.7,0.7
		c-1.4,1.8-1.1,4.3,0.7,5.7c1.1,0.9,2.6,1.1,4,0.6h0.1C166.6,36.1,165.8,34.4,164.8,32.9z"/>
	<path fill="#F7B239" d="M164.8,32.9c1,1.5,1.8,3.1,2.4,4.8c0.6-0.3,1.2-0.7,1.7-1.2C167.4,35.4,166,34.3,164.8,32.9z"/>
	<path fill="#F2C146" d="M198.6,59.9l31.9-12c0,0-0.7-2.3-1.8-5.9l-32.3,12.1L198.6,59.9z"/>
	<path fill="#F2C146" d="M211.9,35.7c0,6.2-5.1,11.2-11.3,11.2c-3.2,0-6.2-1.4-8.3-3.8l4.4,11.7l32.2-12.1h0.1
		c-0.4-1.7-0.9-3.7-1.3-5.8C223,40.8,216,40.3,211.9,35.7L211.9,35.7z"/>
	<path fill="#F2C146" d="M230.4,5.4c0,0-7.4-5.1-8.5,4c0,0-3.2-1.8-3.2,1.6s5.1,10.8-3,15.1c-4.5,2.4-6.9-0.6-8.2-3.7
		c-0.7,0.2-1.4,0.3-2.1,0.2c-0.8,3.2-2.5,7-6,8.4c-5.3,2.2-12.5-7.8-10.6-13.6s11.8-7.6,15-6.3c-0.1-2.7-1.8-5.1-4.4-6
		c-6.8-2.3-11.3,5.5-11.3,5.5S181.9,3.2,176,0l14.5,38.6c0.4-0.2,0.8,0,1,0.4c0,0,0,0,0,0.1c1.9,5,7.5,7.6,12.6,5.7
		c5-1.9,7.6-7.5,5.7-12.6c-0.1-0.4,0.1-0.8,0.5-0.9c0.4-0.1,0.7,0.1,0.9,0.4c1.9,5,7.4,7.6,12.5,5.8c1.4-0.5,2.7-1.3,3.7-2.4
		C225.5,24.7,224.6,11.2,230.4,5.4z"/>
	<path fill="#F2C146" d="M207.6,22.5h0.1c2.1-0.8,3.2-3.1,2.4-5.3c-0.8-2.1-3.1-3.2-5.3-2.4c-2.1,0.8-3.2,3.1-2.4,5.3
		c0.5,1.4,1.7,2.3,3.1,2.6c0.4-1.8,0.7-3.6,0.7-5.4C206.5,19.1,206.9,20.9,207.6,22.5z"/>
	<path fill="#F2C146" d="M206.2,17.3c-0.1,1.8-0.3,3.6-0.7,5.4c0.7,0.1,1.4,0.1,2.1-0.2C206.9,20.9,206.5,19.1,206.2,17.3z"/>
</g>
<text transform="matrix(1 0 0 1 0 474.48)" fill="#FFFFFF" font-family="'Peignot'" font-size="116px">Ro</text>
<text transform="matrix(1 0 0 1 129.45 474.48)" fill="#FFFFFF" font-family="'Peignot'" font-size="116px" letter-spacing="-8">y</text>
<text transform="matrix(1 0 0 1 174.69 474.48)" fill="#FFFFFF" font-family="'Peignot'" font-size="116px">al</text>
<text transform="matrix(1 0 0 1 266.36 474.48)" fill="#FFFFFF" font-family="'Peignot'" font-size="116px">Harp</text>
<polygon fill="#0055A4" points="181,61 178.1,64.6 173.5,63.9 171.9,59.6 174.8,56 179.3,56.7 "/>
<polygon fill="#EF4135" points="220.2,46.6 217.4,50.1 212.9,49.4 211.3,45.2 214.1,41.6 218.6,42.3 "/>
<polygon fill="#FFFFFF" points="200.5,53.3 197.6,56.9 193,56.2 191.4,51.9 194.3,48.3 198.8,49 "/>
</svg>
