<svg id="Camada_1" data-name="Camada 1" xmlns="http://www.w3.org/2000/svg" viewBox="0 0 31.41 38.3">
  <defs>
    <style>
      .cls-1 {
        fill: #dbdbdb;
      }

      .cls-2 {
        fill: #f7b239;
      }

      .cls-3 {
        fill: #fff;
      }

      .cls-4 {
        fill: #f2c146;
      }

      .cls-5 {
        fill: #0055a4;
      }

      .cls-6 {
        fill: #ef4135;
      }
    </style>
  </defs>
  <title>royalcrown-logo</title>
  <g>
    <path class="cls-1" d="M18.37,35.55,14.67,9.23l1.08-.15,3.69,26.31v.07H18.9Z" transform="translate(-2.59 -0.94)"/>
    <path class="cls-1" d="M20.94,31.76,17.66,10.1l1.05-.17L22,31.6v.06l-.53,0Z" transform="translate(-2.59 -0.94)"/>
    <path class="cls-1" d="M23.18,28.67,20.94,13.4l.92-.18L24.1,28.49s0,.05,0,.07l-.47,0Z" transform="translate(-2.59 -0.94)"/>
    <polygon class="cls-1" points="22.75 24.59 21.54 15.6 22.3 15.41 23.5 24.4 22.75 24.59"/>
    <path class="cls-1" d="M27.32,22.3l-.69-5.72.7-.22L28,22.08a.38.38,0,0,1,0,.1l-.36,0Z" transform="translate(-2.59 -0.94)"/>
  </g>
  <path class="cls-2" d="M33.8,14.39a1.67,1.67,0,0,0,.2-.77,2.08,2.08,0,0,0-1.48-1.83,3.43,3.43,0,0,0-3.55.6l-1.82,1.85a1.76,1.76,0,0,1-2.4-.06L20.4,9a9.51,9.51,0,0,0-7-3H13.3l-.16,0a.68.68,0,0,1-.52.2.84.84,0,0,1-.29,0,.66.66,0,0,1-.52.2.73.73,0,0,1-.27,0,.69.69,0,0,1-.54.21.86.86,0,0,1-.34-.06A.59.59,0,0,1,10,6.8a.78.78,0,0,1-.43-.11c0,.24-.22.47-.64.47H8.9L13,37.34l.25,1.89H26.74l-2.53-1.89H21.5v-.07ZM20.55,30.65,18.24,34,16,37.2l-3.8-25.34h0v-.07a2.4,2.4,0,0,1,2.37-2.07H15a3.1,3.1,0,0,1,2.35,1l.22.24L21,14.84l.87,1a4.22,4.22,0,0,0,2.3,1.29,5.53,5.53,0,0,0,2.8-.12,4,4,0,0,0,1.91-1.21l1.7-2a.84.84,0,0,1,.59-.27,1,1,0,0,1,.39,0c.43.14.6.51.39.82L27.5,20.7,25.18,24h0l-2.31,3.32Z" transform="translate(-2.59 -0.94)"/>
  <path class="cls-3" d="M13.49,9.06a.69.69,0,0,1-.73-.48l-.19-1.19c0-.3.24-.57.64-.61a.72.72,0,0,1,.81.48l.19,1.19c0,.3-.24.57-.64.6Z" transform="translate(-2.59 -0.94)"/>
  <g>
    <path class="cls-2" d="M6.8,5.58a.08.08,0,0,1,.06-.1.12.12,0,0,1,.13,0,1.47,1.47,0,0,0,1.67.56c.66-.19,1-.74.75-1.24,0,0,0-.08.06-.1L7.54.94a4,4,0,0,0-.28,1.59s-1.13-.3-1.61.32a.54.54,0,0,0,.09.73,2.18,2.18,0,0,1,2.05-.51c.69.31.85,1.52.13,1.71a1.92,1.92,0,0,1-1.33-.24.52.52,0,0,1-.22.12c.15.32.16.7-.5.82-1.19.2-1.32-.68-1.62-.93a.27.27,0,0,0-.46.08c-.9-.6-1.2.26-1.2.26,1.09.05,2.18,1.11,2.9,2a1.81,1.81,0,0,0,.56-.06C6.72,6.63,7.06,6.08,6.8,5.58Z" transform="translate(-2.59 -0.94)"/>
    <path class="cls-2" d="M6,7.55c.19.3.3.49.3.49l4.23-1.18-.26-.51Z" transform="translate(-2.59 -0.94)"/>
    <path class="cls-2" d="M10.27,6.35,9.69,5.19a1.18,1.18,0,0,1-1,1,1.86,1.86,0,0,1-1.64-.31,1.18,1.18,0,0,1-1,1A1.79,1.79,0,0,1,5.61,7L6,7.55H6l4.26-1.19Z" transform="translate(-2.59 -0.94)"/>
    <path class="cls-2" d="M6.59,4.54a.32.32,0,0,0,.08-.39A.6.6,0,0,0,6,3.92c-.28.07-.42.31-.31.51a.6.6,0,0,0,.69.24h0" transform="translate(-2.59 -0.94)"/>
    <path class="cls-2" d="M6.37,4.67a.54.54,0,0,0,.22-.13" transform="translate(-2.59 -0.94)"/>
    <path class="cls-4" d="M10.53,6.86l4.23-1.19-.23-.58-4.29,1.2Z" transform="translate(-2.59 -0.94)"/>
    <path class="cls-4" d="M12.3,4.46a1.2,1.2,0,0,1-1,1,1.86,1.86,0,0,1-1.64-.31l.58,1.16,4.27-1.2h0l-.17-.58a2,2,0,0,1-.44.2A1.85,1.85,0,0,1,12.3,4.46Z" transform="translate(-2.59 -0.94)"/>
    <path class="cls-4" d="M14.76,1.47s-1-.5-1.13.4c0,0-.42-.17-.42.16s.68,1.07-.4,1.5a.78.78,0,0,1-1.09-.37.62.62,0,0,1-.27,0,1.22,1.22,0,0,1-.8.83C10,4.23,9,3.24,9.24,2.66s1.57-.75,2-.62a.67.67,0,0,0-.58-.59A1.52,1.52,0,0,0,9.16,2a6.6,6.6,0,0,0-1.62-1L9.47,4.75a.12.12,0,0,1,.13,0,1.45,1.45,0,0,0,1.66.56c.67-.19,1-.74.76-1.24,0,0,0-.08.05-.1a.12.12,0,0,1,.13.05,1.47,1.47,0,0,0,1.67.56,1.38,1.38,0,0,0,.47-.23C14.1,3.38,14,2.05,14.76,1.47Z" transform="translate(-2.59 -0.94)"/>
    <path class="cls-4" d="M11.72,3.16h0c.28-.08.42-.31.32-.52a.61.61,0,0,0-.7-.23c-.28.08-.42.31-.31.52a.54.54,0,0,0,.41.25" transform="translate(-2.59 -0.94)"/>
    <path class="cls-4" d="M11.45,3.18a.63.63,0,0,0,.27,0" transform="translate(-2.59 -0.94)"/>
  </g>
  <polygon class="cls-5" points="5.61 6.03 5.22 6.39 4.62 6.32 4.4 5.89 4.78 5.54 5.38 5.61 5.61 6.03"/>
  <polygon class="cls-6" points="10.81 4.61 10.43 4.95 9.84 4.88 9.62 4.47 10 4.12 10.59 4.19 10.81 4.61"/>
  <polygon class="cls-3" points="8.19 5.28 7.8 5.63 7.2 5.56 6.98 5.13 7.36 4.78 7.97 4.85 8.19 5.28"/>
</svg>
